<?xml version="1.0" encoding="UTF-8"?>
<svg xmlns="http://www.w3.org/2000/svg" version="1.1" viewBox="0 0 283.5 283.5">
  <defs>
    <style>
      .cls-1 {
        fill: #008ecd;
      }
    </style>
  </defs>
  <!-- Generator: Adobe Illustrator 28.7.0, SVG Export Plug-In . SVG Version: 1.2.0 Build 136)  -->
  <g>
    <g id="Layer_1">
      <path class="cls-1" d="M244.4,78.8v-16.6l-20.8-20.8-21.3,21.7v16l15.7-15.6v126.7c-7.9,0-12.7,3.7-12.7,9.7h0s0,34.9,0,34.9c.2,5.8,6.8,9.2,12.2,9.2h12.5c7.1-.6,11.4-3.7,11.4-9.7v-34.5c-1-7.3-5.4-9-12.2-9.7V63.4l15.2,15.4ZM229.3,204v28.6c-2.1,4.9-8.5,4.8-11.2,0h0v-31.2c2-2.7,4.4-3.6,6.6-3.2,2.7.5,4.6,3,4.6,5.8Z"/>
      <path class="cls-1" d="M57.5,242.5l-14-68.7h17.4l9.4,42.4,12.8-42.4h19.9l11.2,42.3,9.2-42.3h16.1l-14.2,68.7h-22.3l-11.1-42.5-12.6,42.5h-21.8Z"/>
      <path class="cls-1" d="M143.5,88.1c-6-4-11.2-3.9-15.9,1.7v52.8h-18V56.5h-24.1v86h-19.5V56.5h-23.2v-13h84.8v36.2c11.6-10.6,27.1-11.4,33.4,4.8v91.9c6.8-6.8,14.6-7.7,21.6-6.6,5.3,2.6,8.6,5.4,10.2,12.5v60.3h-17.3v-54.9c-2.2-7.5-12.4-4.9-14.6,1.3v53.5h-17.4V88.1Z"/>
      <path class="cls-1" d="M207.5,120.5v-16.6c-4.1-17.1-32.3-18.8-37-1h0v33.6c0,6.2,6.7,10.1,18.9,10.4,8.1-.4,16.8-3.3,18.1-10.4v-8.1h-12.9v7.5c-.8,3.5-9.8,4.6-11.9,0v-15.3h24.8ZM184,102.3c1.5-4,8.1-3.8,9.3,0v10.6h-9.3c0,0,0-10.6,0-10.6Z"/>
    </g>
  </g>
</svg>